<svg xmlns="http://www.w3.org/2000/svg" viewBox="0 0 160 160"><defs><linearGradient id="metal"><stop stop-color="#e3bd63"/><stop offset=".5" stop-color="#fff0ad"/><stop offset="1" stop-color="#83602d"/></linearGradient><radialGradient id="halo"><stop stop-color="#e3bd63" stop-opacity=".2"/><stop offset="1" stop-color="#e3bd63" stop-opacity="0"/></radialGradient></defs><circle cx="80" cy="80" r="76" fill="url(#halo)"/><path d="M40 133 90 49" stroke="#221d1b" stroke-width="16" stroke-linecap="round"/><path d="M40 132 91 47" stroke="#71543c" stroke-width="11" stroke-linecap="round"/><path d="m49 116 9 5m-3-15 10 5m-4-15 10 5" stroke="#c3a57b" stroke-width="3"/><path d="M39 44Q78 18 123 48L144 76 113 57 85 52 43 60 23 67Z" fill="url(#metal)" stroke="#83602d" stroke-width="3"/><path d="m84 39 17 7-9 17-17-6Z" fill="#83602d" stroke="#e3bd63" stroke-width="2"/><path d="m126 21 2 7 7 2-7 2-2 7-2-7-7-2 7-2Z" fill="#fff0bb"/></svg>
