<svg xmlns="http://www.w3.org/2000/svg" viewBox="0 0 160 160"><defs><linearGradient id="metal"><stop stop-color="#e3bd63"/><stop offset=".5" stop-color="#fff0ad"/><stop offset="1" stop-color="#83602d"/></linearGradient><radialGradient id="halo"><stop stop-color="#e3bd63" stop-opacity=".2"/><stop offset="1" stop-color="#e3bd63" stop-opacity="0"/></radialGradient></defs><circle cx="80" cy="80" r="76" fill="url(#halo)"/><path d="M35 140Q78 85 107 19" fill="none" stroke="#211f1b" stroke-width="10" stroke-linecap="round"/><path d="M35 140Q78 85 107 19" fill="none" stroke="url(#metal)" stroke-width="6" stroke-linecap="round"/><path d="m37 133 20-25" stroke="#664c37" stroke-width="10"/><path d="m41 127 8 5m-4-12 9 5m-3-12 9 5" stroke="#ccb991" stroke-width="2"/><circle cx="76" cy="89" r="12" fill="#83602d" stroke="#e3bd63" stroke-width="3"/><path d="M107 20Q140 45 127 107" fill="none" stroke="#ded4b4" stroke-width="1.5"/><path d="M127 107v13q0 15-10 13-7-2-2-10" fill="none" stroke="url(#metal)" stroke-width="3"/><path d="m112 123 5 2-1-6" fill="#e3bd63"/><path d="m126 21 2 7 7 2-7 2-2 7-2-7-7-2 7-2Z" fill="#fff0bb"/></svg>
